<svg width="105" height="41" viewBox="0 0 105 41" fill="none" xmlns="http://www.w3.org/2000/svg">
<path d="M22.5169 4.60428V10.4964H7.34331V19.83H18.9712V25.6179H7.34331V41H0.0433075V4.60428H22.5169ZM31.3954 8.67143C30.1092 8.67143 29.0316 8.27166 28.1626 7.47214C27.3283 6.63785 26.9111 5.61238 26.9111 4.39571C26.9111 3.17904 27.3283 2.17095 28.1626 1.37142C29.0316 0.537138 30.1092 0.119995 31.3954 0.119995C32.6816 0.119995 33.7419 0.537138 34.5761 1.37142C35.4452 2.17095 35.8797 3.17904 35.8797 4.39571C35.8797 5.61238 35.4452 6.63785 34.5761 7.47214C33.7419 8.27166 32.6816 8.67143 31.3954 8.67143ZM34.9933 12.1129V41H27.6933V12.1129H34.9933ZM58.2136 11.6957C61.655 11.6957 64.4359 12.7907 66.5564 14.9807C68.6769 17.136 69.7371 20.1602 69.7371 24.0536V41H62.4371V25.0443C62.4371 22.75 61.8636 20.9945 60.7164 19.7779C59.5693 18.5264 58.005 17.9007 56.0236 17.9007C54.0074 17.9007 52.4083 18.5264 51.2264 19.7779C50.0793 20.9945 49.5057 22.75 49.5057 25.0443V41H42.2057V12.1129H49.5057V15.7107C50.479 14.4593 51.7131 13.4859 53.2078 12.7907C54.7374 12.0607 56.4059 11.6957 58.2136 11.6957ZM92.6869 11.6957C96.1283 11.6957 98.9093 12.7907 101.03 14.9807C103.15 17.136 104.21 20.1602 104.21 24.0536V41H96.9105V25.0443C96.9105 22.75 96.3369 20.9945 95.1898 19.7779C94.0426 18.5264 92.4783 17.9007 90.4969 17.9007C88.4807 17.9007 86.8817 18.5264 85.6998 19.7779C84.5526 20.9945 83.9791 22.75 83.9791 25.0443V41H76.679V12.1129H83.9791V15.7107C84.9524 14.4593 86.1864 13.4859 87.6812 12.7907C89.2107 12.0607 90.8793 11.6957 92.6869 11.6957Z" fill="white"/>
</svg>
